# xmcd
#
# Track frame offsets: 
#        150
#        525
#        15375
#        25276
#        33826
#        46729
#        62705
#        71106
#        86408
#        95033
#        104708
#        126535
#        134185
#        150986
#        166363
#        174613
#        184140
#        201467
#        212267
#        226817
#        236117
#        249167
#        259967
#        260717
#        282473
#        312623
#
# Disc length: 4544 seconds
#
# Revision: 0
# Processed by: cddbd v1.5.2PL0 Copyright (c) Steve Scherf et al.
# Submitted via: ExactAudioCopy v0.99pb5
#
DISCID=7c11be1a
DTITLE=Virgis Stakenas - Siauliai
DYEAR=2008
DGENRE=Ballad
TTITLE0=Izanga
TTITLE1=Ugninis lietus
TTITLE2=Arbatos bliuzas
TTITLE3=Amzius
TTITLE4=Biciuliai
TTITLE5=Pro sali
TTITLE6=Avis
TTITLE7=03
TTITLE8=Manekene
TTITLE9=Uzdaryk duris!
TTITLE10=Kareiveli!
TTITLE11=Lietuvi!
TTITLE12=Stiliaga
TTITLE13=Vaistai nuo senatves
TTITLE14=Anam svieti
TTITLE15=Pavasaris
TTITLE16=Jaunute
TTITLE17=Per anksti - per velai
TTITLE18=Yes!
TTITLE19=Viens-du-trys
TTITLE20=Rytas
TTITLE21=Keliai, masinos, zmones
TTITLE22=Laiko juosta
TTITLE23=Mazytis rekviem gitarai, balsui ir chorui
TTITLE24=Egles daina
TTITLE25=Kiaulpiene
EXTD=
EXTT0=
EXTT1=
EXTT2=
EXTT3=
EXTT4=
EXTT5=
EXTT6=
EXTT7=
EXTT8=
EXTT9=
EXTT10=
EXTT11=
EXTT12=
EXTT13=
EXTT14=
EXTT15=
EXTT16=
EXTT17=
EXTT18=
EXTT19=
EXTT20=
EXTT21=
EXTT22=
EXTT23=
EXTT24=
EXTT25=
PLAYORDER=
